<?xml version="1.0" encoding="utf-8"?>
<!-- Generator: Adobe Illustrator 24.3.0, SVG Export Plug-In . SVG Version: 6.00 Build 0)  -->
<svg version="1.1" id="Layer_1" xmlns:svg="http://www.w3.org/2000/svg"
	 xmlns="http://www.w3.org/2000/svg" xmlns:xlink="http://www.w3.org/1999/xlink" x="0px" y="0px" viewBox="0 0 475.2 228.1"
	 style="enable-background:new 0 0 475.2 228.1;" xml:space="preserve">
<style type="text/css">
	.st0{fill:#FFFFFF;}
</style>
<g id="path1334">
	<path class="st0" d="M315.7,212.9v-15.8l-33.1,0c-12.6,0-24.4-6.9-31.4-13.4c-0.3-0.2-0.5-0.4-0.6-0.6c-0.7-0.7-46-48.6-49.6-52.4
		c-3.4-2.7-7.6-4.3-11.6-4.4h-82.7c-5.4,18.5-22.6,31.6-42.1,31.6c-24.2,0-43.9-19.7-43.9-43.9c0-24.2,19.7-43.9,43.9-43.9
		c19.6,0,36.8,13.1,42.1,31.6h23.7c3.9-0.1,8.2-1.7,11.6-4.4c3.6-3.8,48-50.7,49.5-52.3l0.1-0.1c0.1-0.1,0.3-0.4,0.6-0.6
		c7-6.6,18.8-13.4,31.3-13.4l36,0c4.7-9.6,14.4-15.8,25.2-15.8c15.5,0,28.1,12.6,28.1,28.1c0,15.5-12.6,28.1-28.1,28.1
		c-10.8,0-20.5-6.2-25.2-15.8c-6.2,0-18.2,0-36.4,0c-3.9,0.1-8.1,1.7-11.6,4.4l-39.5,41.8h226.2V79l60.7,35l-60.7,35v-22.8H231.1
		l39.6,41.8c3.5,2.7,7.7,4.3,11.6,4.4c17.7,0,28.1,0,33.5,0v-15.8h56.2v56.2H315.7z"/>
	<path d="M284.8,19.7c13,0,23.6,10.6,23.6,23.6c0,13-10.6,23.6-23.6,23.6c-10.3,0-19-6.6-22.2-15.8c-4.8,0-17.7,0-39.4,0
		c-5.4,0.1-10.6,2.4-14.6,5.6l-47,49.6h241.1V86.8l47.2,27.2l-47.2,27.2v-19.5H220.6l47,49.6c4,3.2,9.2,5.4,14.6,5.6
		c28.1,0,38,0,38,0v-15.8h47.2v47.2h-47.2v-15.8l-37.6,0c-10.6,0-21.6-5.8-28.7-12.6c0.1,0.1,0.2,0.2,0.2,0.2c0,0-0.1-0.1-0.2-0.2
		c-0.2-0.2-49.8-52.6-49.8-52.6c-4-3.2-9.2-5.4-14.6-5.6h-59.3c0,0,0,0-0.1,0c0,0-0.1,0-0.1,0h-26.8c-3.6,18-19.5,31.6-38.6,31.6
		c-21.8,0-39.4-17.6-39.4-39.4c0-21.8,17.6-39.4,39.4-39.4c19.1,0,35,13.6,38.6,31.6h27.3c5.4-0.1,10.6-2.4,14.6-5.6
		c0,0,49.7-52.5,49.8-52.6c0.2-0.2,0.2-0.2,0.2-0.2c0,0-0.1,0.1-0.2,0.2c7-6.8,18.1-12.6,28.7-12.6l39,0
		C265.9,26.3,274.5,19.7,284.8,19.7 M284.8,10.7c-11.5,0-22,6.1-27.8,15.8l-33.3,0c-13.8,0-26.6,7.4-34.3,14.5
		c-0.4,0.4-0.7,0.7-0.9,0.9l-0.1,0.1l0,0c-1.8,1.9-32.5,34.4-49.2,52c-2.6,2-5.7,3.1-8.6,3.2h-20.4c-6.9-18.7-25-31.6-45.4-31.6
		C38,65.6,16.3,87.4,16.3,114c0,26.7,21.7,48.4,48.4,48.4c20.4,0,38.5-12.9,45.4-31.6h20l0.2,0c0.1,0,0.1,0,0.2,0h59
		c2.9,0.1,6,1.3,8.6,3.3c16.8,17.8,47.8,50.5,49.3,52l0,0l0.1,0.1c0.2,0.2,0.4,0.4,0.7,0.6c7.6,7.2,20.6,14.8,34.6,14.8l28.6,0v6.8
		v9h9h47.2h9v-9v-47.2v-9h-9h-47.2h-9v9v6.8c-6,0-15.4,0-28.9,0c-2.9-0.1-6-1.3-8.7-3.3l-32.1-33.9h152.3v10.5v15.6l13.5-7.8
		l47.2-27.2l13.5-7.8l-13.5-7.8L407.3,79l-13.5-7.8v15.6v10.4H182.6l32.1-33.9c2.6-2,5.8-3.2,8.7-3.3c15.3,0,26.7,0,33.7,0
		c5.8,9.7,16.3,15.8,27.8,15.8c18,0,32.6-14.6,32.6-32.6C317.4,25.3,302.8,10.7,284.8,10.7L284.8,10.7z"/>
</g>
</svg>
